<?xml version="1.0" encoding="UTF-8" standalone="no"?>
<svg width="217px" height="62px" viewBox="0 0 217 62" version="1.1" xmlns="http://www.w3.org/2000/svg" xmlns:xlink="http://www.w3.org/1999/xlink">
    <!-- Generator: Sketch 41.2 (35397) - http://www.bohemiancoding.com/sketch -->
    <title>delos-logo</title>
    <desc>Created with Sketch.</desc>
    <defs></defs>
    <g id="Page-1" stroke="none" stroke-width="1" fill="none" fill-rule="evenodd">
        <g id="delos-logo">
            <g id="Page-1">
                <path d="M28.5232,20.9776 L28.5232,39.0746 L36.2632,39.0746 C38.7622,39.0356 41.6212,38.9936 43.4862,36.3346 C44.3192,35.1836 45.1932,33.2416 45.1932,29.7066 C45.1932,27.0496 44.5972,25.2236 43.8042,23.9536 C41.9782,21.0556 39.0402,21.0166 36.6202,20.9776 L28.5232,20.9776 Z M21.5382,16.0136 L36.8572,16.0136 C37.8902,16.0556 38.9222,16.0556 39.9532,16.1756 C48.1292,16.9286 52.1792,22.6416 52.1792,29.8676 C52.1792,33.0806 51.3842,36.2566 49.4402,38.8356 C45.5102,43.9546 40.2312,43.9966 35.9852,44.0356 L21.5382,44.0356 L21.5382,16.0136 Z" id="Fill-1" fill="#FFFFFF"></path>
                <polygon id="Fill-3" fill="#FFFFFF" points="57.9522 16.0138 84.0672 16.0138 84.0672 21.0548 64.9782 21.0548 64.9782 27.3668 83.4322 27.3668 83.4322 32.3268 64.9782 32.3268 64.9782 39.0358 84.8622 39.0358 84.8622 44.0358 57.9522 44.0358"></polygon>
                <polygon id="Fill-5" fill="#FFFFFF" points="91.1104 16.0138 98.1344 16.0138 98.1344 38.8748 113.6934 38.8748 113.6934 44.0358 91.1104 44.0358"></polygon>
                <path d="M121.8514,30.2233 C121.8514,33.6363 123.1214,35.4233 123.6364,36.0983 C124.3124,37.0483 126.3754,39.9473 131.8134,39.9473 C138.3614,39.9473 141.8554,35.5043 141.8554,30.1033 C141.8554,23.8343 137.1324,19.9853 131.5354,20.1823 C126.8524,20.3413 121.8514,23.4373 121.8514,30.2233 M146.0224,20.5803 C147.1734,21.9693 149.0374,25.0653 149.0374,29.7483 C149.0374,38.6773 143.2434,44.9463 131.9324,44.9463 C120.6214,44.9463 114.6284,38.7973 114.6284,30.0653 C114.6284,20.4213 121.5344,15.5383 130.7414,15.1413 C136.2584,14.9053 142.5294,16.3333 146.0224,20.5803" id="Fill-7" fill="#FFFFFF"></path>
                <path d="M158.9814,35.3422 C160.5694,38.7162 164.5784,39.7502 168.3884,39.7502 C170.0954,39.7502 175.4534,39.4722 175.4534,36.0562 C175.4534,34.0332 173.5074,33.5582 172.0004,33.2802 C170.8494,33.0412 165.0944,32.1692 163.7834,31.9292 C161.2044,31.4542 154.6964,30.2232 154.6964,23.8732 C154.6964,22.4832 155.0924,21.0552 155.8064,19.9042 C158.1494,16.1332 163.3084,15.1412 167.7534,15.1412 C171.8414,15.1412 174.9764,15.7362 177.8734,17.3262 C180.7324,18.8742 181.9614,20.9352 182.5174,21.8502 L175.8494,23.5172 C175.6114,23.0812 175.0554,22.0472 173.3894,21.2132 C171.5234,20.3022 169.1034,20.1442 167.7534,20.1442 C164.6574,20.1442 161.4824,20.7382 161.4824,23.3982 C161.4824,25.2242 163.1094,25.6992 165.2134,26.1742 C166.3644,26.4132 172.0794,27.3662 173.3894,27.6442 C176.6444,28.2392 182.1604,29.4282 182.1604,35.5812 C182.1604,44.5912 171.4444,44.9082 167.9124,44.9082 C163.3084,44.9082 156.2034,44.1162 152.5924,37.0102 L158.9814,35.3422 Z" id="Fill-9" fill="#FFFFFF"></path>
                <path d="M173.782,60.5 C190.192,60.5 203.5,47.41 203.5,31 C203.5,14.59 190.192,1.5 173.782,1.5 L2,1.5 L2,48.126 L14.592,60.5 L173.782,60.5 Z" id="Stroke-11" stroke="#FFFFFF"></path>
                <path d="M28.5232,20.9776 L28.5232,39.0746 L36.2632,39.0746 C38.7622,39.0356 41.6212,38.9936 43.4862,36.3346 C44.3192,35.1836 45.1932,33.2416 45.1932,29.7066 C45.1932,27.0496 44.5972,25.2236 43.8042,23.9536 C41.9782,21.0556 39.0402,21.0166 36.6202,20.9776 L28.5232,20.9776 Z M21.5382,16.0136 L36.8572,16.0136 C37.8902,16.0556 38.9222,16.0556 39.9532,16.1756 C48.1292,16.9286 52.1792,22.6416 52.1792,29.8676 C52.1792,33.0806 51.3842,36.2566 49.4402,38.8356 C45.5102,43.9546 40.2312,43.9966 35.9852,44.0356 L21.5382,44.0356 L21.5382,16.0136 Z" id="Fill-13" fill="#FFFFFF"></path>
                <polygon id="Fill-15" fill="#FFFFFF" points="57.9522 16.0138 84.0672 16.0138 84.0672 21.0548 64.9782 21.0548 64.9782 27.3668 83.4322 27.3668 83.4322 32.3268 64.9782 32.3268 64.9782 39.0358 84.8622 39.0358 84.8622 44.0358 57.9522 44.0358"></polygon>
                <polygon id="Fill-17" fill="#FFFFFF" points="91.1104 16.0138 98.1344 16.0138 98.1344 38.8748 113.6934 38.8748 113.6934 44.0358 91.1104 44.0358"></polygon>
                <path d="M121.8514,30.2233 C121.8514,33.6363 123.1214,35.4233 123.6364,36.0983 C124.3124,37.0483 126.3754,39.9473 131.8134,39.9473 C138.3614,39.9473 141.8554,35.5043 141.8554,30.1033 C141.8554,23.8343 137.1324,19.9853 131.5354,20.1823 C126.8524,20.3413 121.8514,23.4373 121.8514,30.2233 M146.0224,20.5803 C147.1734,21.9693 149.0374,25.0653 149.0374,29.7483 C149.0374,38.6773 143.2434,44.9463 131.9324,44.9463 C120.6214,44.9463 114.6284,38.7973 114.6284,30.0653 C114.6284,20.4213 121.5344,15.5383 130.7414,15.1413 C136.2584,14.9053 142.5294,16.3333 146.0224,20.5803" id="Fill-19" fill="#FFFFFF"></path>
                <path d="M158.9814,35.3422 C160.5694,38.7162 164.5784,39.7502 168.3884,39.7502 C170.0954,39.7502 175.4534,39.4722 175.4534,36.0562 C175.4534,34.0332 173.5074,33.5582 172.0004,33.2802 C170.8494,33.0412 165.0944,32.1692 163.7834,31.9292 C161.2044,31.4542 154.6964,30.2232 154.6964,23.8732 C154.6964,22.4832 155.0924,21.0552 155.8064,19.9042 C158.1494,16.1332 163.3084,15.1412 167.7534,15.1412 C171.8414,15.1412 174.9764,15.7362 177.8734,17.3262 C180.7324,18.8742 181.9614,20.9352 182.5174,21.8502 L175.8494,23.5172 C175.6114,23.0812 175.0554,22.0472 173.3894,21.2132 C171.5234,20.3022 169.1034,20.1442 167.7534,20.1442 C164.6574,20.1442 161.4824,20.7382 161.4824,23.3982 C161.4824,25.2242 163.1094,25.6992 165.2134,26.1742 C166.3644,26.4132 172.0794,27.3662 173.3894,27.6442 C176.6444,28.2392 182.1604,29.4282 182.1604,35.5812 C182.1604,44.5912 171.4444,44.9082 167.9124,44.9082 C163.3084,44.9082 156.2034,44.1162 152.5924,37.0102 L158.9814,35.3422 Z" id="Fill-21" fill="#FFFFFF"></path>
                <path d="M173.78,59 L15.21,59 L3,47.5 L3,3 L173.78,3 C189.34,3 202,15.56 202,31 C202,46.44 189.34,59 173.78,59 M173.78,0 L0,0 L0,48.75 L13.98,62 L173.78,62 C191,62 205,48.09 205,31 C205,13.91 191,0 173.78,0" id="Fill-23" fill="#FFFFFF"></path>
                <path d="M194.59,0 L188.66,0 C200.11,5.63 208,17.41 208,31 C208,44.59 200.11,56.37 188.66,62 L194.59,62 C204.49,55.24 211,43.87 211,31 C211,18.13 204.49,6.76 194.59,0" id="Fill-25" fill="#FFFFFF"></path>
                <path d="M203.38,0 L198.72,0 C208.01,7.16 214,18.4 214,31 C214,43.6 208.01,54.84 198.72,62 L203.38,62 C211.75,54.29 217,43.25 217,31 C217,18.75 211.75,7.71 203.38,0" id="Fill-27" fill="#FFFFFF"></path>
            </g>
        </g>
    </g>
</svg>